<?xml version="1.0" standalone="no"?>
<!DOCTYPE svg PUBLIC "-//W3C//DTD SVG 20010904//EN"
 "http://www.w3.org/TR/2001/REC-SVG-20010904/DTD/svg10.dtd">
<svg version="1.0" xmlns="http://www.w3.org/2000/svg"
 width="200.000000pt" height="200.000000pt" viewBox="0 0 200.000000 200.000000"
 preserveAspectRatio="xMidYMid meet">

<g transform="translate(0.000000,200.000000) scale(0.100000,-0.100000)"
fill="#000000" stroke="none">
<path d="M640 1495 c-7 -8 -9 -19 -6 -24 4 -5 -8 -39 -26 -75 -22 -46 -38 -66
-51 -66 -35 0 -165 67 -171 88 -16 48 -80 33 -74 -17 3 -24 7 -26 48 -27 26 0
71 -12 108 -29 54 -24 62 -31 62 -54 0 -18 -13 -40 -39 -65 -33 -32 -43 -37
-68 -32 -21 5 -36 1 -56 -14 l-26 -20 -55 27 c-31 15 -59 35 -62 45 -8 25 -51
24 -59 -2 -9 -28 3 -42 34 -38 15 1 52 -9 82 -22 46 -20 57 -30 66 -59 10 -30
8 -40 -9 -66 -11 -16 -32 -40 -46 -52 -16 -14 -23 -27 -18 -38 9 -24 40 -14
44 14 2 13 15 42 30 63 19 29 31 38 45 34 10 -2 29 0 42 6 29 13 95 -26 95
-58 0 -33 25 -49 55 -36 14 7 25 15 25 20 0 5 34 19 75 32 63 20 78 22 98 11
13 -7 35 -11 48 -10 29 4 88 -37 100 -68 9 -26 44 -31 52 -9 7 18 -18 40 -33
31 -7 -4 -27 8 -46 26 -26 26 -34 39 -29 57 4 16 -2 30 -20 48 -23 23 -25 32
-25 114 0 107 1 107 95 53 51 -29 74 -51 115 -110 28 -40 53 -73 56 -73 7 0
-2 14 -54 88 l-45 64 52 45 c28 24 50 52 50 61 -1 15 -2 15 -6 1 -2 -9 -26
-35 -53 -58 l-50 -42 -65 38 c-35 21 -65 43 -65 50 0 19 -28 42 -47 37 -21 -5
-133 80 -133 101 0 19 -27 26 -40 10z m91 -81 c35 -28 59 -55 59 -66 0 -10 7
-21 15 -24 20 -8 22 -194 2 -194 -22 0 -196 159 -203 184 -6 26 41 146 58 146
5 0 36 -21 69 -46z m-39 -215 c46 -39 84 -73 86 -74 2 -1 0 -14 -4 -29 -5 -22
-17 -29 -82 -49 -75 -22 -77 -22 -95 -4 -12 12 -27 17 -40 13 -12 -3 -35 3
-53 15 -26 16 -33 27 -37 62 -4 37 0 46 31 80 25 25 45 37 63 37 15 0 31 5 34
10 3 6 8 10 10 10 2 0 41 -32 87 -71z"/>
<path d="M1183 1085 c-41 -95 -41 -95 -18 -95 15 0 26 7 30 20 5 16 15 20 55
20 40 0 50 -4 55 -20 4 -13 15 -20 30 -20 23 0 23 0 -18 95 -37 83 -45 95 -67
95 -22 0 -30 -11 -67 -95z m86 14 c6 -18 11 -34 11 -35 0 -2 -13 -4 -30 -4
-33 0 -36 7 -18 45 15 33 24 32 37 -6z"/>
<path d="M1350 1165 c0 -10 11 -15 35 -15 l35 0 0 -80 c0 -73 2 -80 20 -80 18
0 20 7 20 80 l0 80 30 0 c20 0 30 5 30 15 0 12 -16 15 -85 15 -69 0 -85 -3
-85 -15z"/>
<path d="M1550 1085 c0 -95 0 -95 25 -95 20 0 25 5 25 25 0 22 4 25 34 25 48
0 86 33 86 75 0 48 -29 65 -107 65 l-63 0 0 -95z m120 50 c6 -8 9 -23 5 -35
-5 -15 -15 -20 -41 -20 -32 0 -34 2 -34 35 0 32 3 35 29 35 16 0 34 -7 41 -15z"/>
<path d="M1760 1085 c0 -88 1 -95 20 -95 16 0 20 7 20 35 l0 35 50 0 c37 0 50
4 50 14 0 11 -14 16 -47 18 -44 3 -48 5 -51 31 -3 27 -2 27 52 27 43 0 56 3
56 15 0 12 -15 15 -75 15 l-75 0 0 -95z"/>
<path d="M1711 923 c-1 -23 3 -44 7 -47 4 -2 6 12 4 32 -5 56 -10 62 -11 15z"/>
<path d="M1463 905 c0 -22 2 -30 4 -17 2 12 2 30 0 40 -3 9 -5 -1 -4 -23z"/>
<path d="M1603 905 c0 -22 2 -30 4 -17 2 12 2 30 0 40 -3 9 -5 -1 -4 -23z"/>
</g>
</svg>
